<svg class="diagram-root" style="background: #f5f6f6" xmlns="http://www.w3.org/2000/svg" xmlns:xlink="http://www.w3.org/1999/xlink"><style>.diagram-root { font-family: "Helvetica Neue", sans-serif; font-size: 12px; } .t { overflow: visible; } .t-bg { y: 40; fill: #fff;   } .th { fill: #005aa0;   } .tht { fill: #fff; font-size: 14px;  } .tf { fill: #323c46; overflow: visible; } .tf.pk { fill: #005aa0; font-weight: bold; } .tf.fk { font-weight: bold; } .ty { fill: #adb1b5; font-weight: normal; text-anchor: end; } .r { fill: transparent; stroke: #c3c3c3; stroke-width: 1; } .l { stroke: 1; } .i { fill: #c2c7ce; stroke: #c2c7ce; } .i.ix { fill: #afb3b6; stroke: #000; } .fa { fill: transparent; overflow: visible; } .fa .bg.hover { fill: #f7f7f7; } .c { cy: 12; r: 4; stroke: #d2d2dc; fill: #d2d2dc; } .hr { fill: transparent; stroke: #323c46; stroke-opacity: 0.035; stroke-width: 13; } .dc { stroke: #fa5a3c; fill: #fa5a3c; } .x { stroke: white; stroke-width: 1; } .hl .th { fill: #1b9bff; } .hl .tht {  } .fhl .bg { fill: #e7f4ff; } .fhls .bg {  } .r.hl { stroke: #1b9bff; } .dim { opacity: 0.25; }</style><g class="drawing-wrapper" transform="translate(635.36, 93.39285714285703) scale(1,1)"><g class="rs"><path d="M 129.83 334.36 m -1, 0 a 1,1 0 1,0 2,0 a 1,1 0 1,0 -2,0 M 129.83 334.36 m -0.5, 0 a 0.5,0.5 0 1,0 1,0 a 0.5,0.5 0 1,0 -1,0  M129.83 334.36 L129.83 334.36 141.83 334.36 M 129.83 340.36 m -1, 0 a 1,1 0 1,0 2,0 a 1,1 0 1,0 -2,0 M 129.83 340.36 m -0.5, 0 a 0.5,0.5 0 1,0 1,0 a 0.5,0.5 0 1,0 -1,0  M129.83 340.36 L129.83 340.36 136.83 334.36 129.83 328.36 M 129.83 328.36 m -1, 0 a 1,1 0 1,0 2,0 a 1,1 0 1,0 -2,0 M 129.83 328.36 m -0.5, 0 a 0.5,0.5 0 1,0 1,0 a 0.5,0.5 0 1,0 -1,0  M141.83 334.36 C 192.56599999999997 334.36, 192.29 -6.390000000000001, 142.29 -6.390000000000001 M 130.29 -6.390000000000001 m -1, 0 a 1,1 0 1,0 2,0 a 1,1 0 1,0 -2,0 M 130.29 -6.390000000000001 m -0.5, 0 a 0.5,0.5 0 1,0 1,0 a 0.5,0.5 0 1,0 -1,0  M130.29 -6.390000000000001 L130.29 -6.390000000000001 142.29 -6.390000000000001 M136.29 -0.39000000000000057 L136.29 -0.39000000000000057 136.29 -12.39" id="h3009245016" class="r"></path><path d="M 129.83 359.36 m -1, 0 a 1,1 0 1,0 2,0 a 1,1 0 1,0 -2,0 M 129.83 359.36 m -0.5, 0 a 0.5,0.5 0 1,0 1,0 a 0.5,0.5 0 1,0 -1,0  M129.83 359.36 L129.83 359.36 141.83 359.36 M 129.83 365.36 m -1, 0 a 1,1 0 1,0 2,0 a 1,1 0 1,0 -2,0 M 129.83 365.36 m -0.5, 0 a 0.5,0.5 0 1,0 1,0 a 0.5,0.5 0 1,0 -1,0  M129.83 365.36 L129.83 365.36 136.83 359.36 129.83 353.36 M 129.83 353.36 m -1, 0 a 1,1 0 1,0 2,0 a 1,1 0 1,0 -2,0 M 129.83 353.36 m -0.5, 0 a 0.5,0.5 0 1,0 1,0 a 0.5,0.5 0 1,0 -1,0  M141.83 359.36 Q 185.92 359.36, 230 322.2 T 318.17 285.03 M 330.17 285.03 m -1, 0 a 1,1 0 1,0 2,0 a 1,1 0 1,0 -2,0 M 330.17 285.03 m -0.5, 0 a 0.5,0.5 0 1,0 1,0 a 0.5,0.5 0 1,0 -1,0  M330.17 285.03 L330.17 285.03 318.17 285.03 M324.17 291.03 L324.17 291.03 324.17 279.03" id="h1165223422" class="r"></path><path d="M 129.83 384.36 m -1, 0 a 1,1 0 1,0 2,0 a 1,1 0 1,0 -2,0 M 129.83 384.36 m -0.5, 0 a 0.5,0.5 0 1,0 1,0 a 0.5,0.5 0 1,0 -1,0  M129.83 384.36 L129.83 384.36 141.83 384.36 M 129.83 390.36 m -1, 0 a 1,1 0 1,0 2,0 a 1,1 0 1,0 -2,0 M 129.83 390.36 m -0.5, 0 a 0.5,0.5 0 1,0 1,0 a 0.5,0.5 0 1,0 -1,0  M129.83 390.36 L129.83 390.36 136.83 384.36 129.83 378.36 M 129.83 378.36 m -1, 0 a 1,1 0 1,0 2,0 a 1,1 0 1,0 -2,0 M 129.83 378.36 m -0.5, 0 a 0.5,0.5 0 1,0 1,0 a 0.5,0.5 0 1,0 -1,0  M141.83 384.36 Q 185.92 384.36, 230 334.7 T 318.17 285.03 M 330.17 285.03 m -1, 0 a 1,1 0 1,0 2,0 a 1,1 0 1,0 -2,0 M 330.17 285.03 m -0.5, 0 a 0.5,0.5 0 1,0 1,0 a 0.5,0.5 0 1,0 -1,0  M330.17 285.03 L330.17 285.03 318.17 285.03 M324.17 291.03 L324.17 291.03 324.17 279.03" id="h4031899293" class="r"></path><path d="M -91.61 509.36 m -1, 0 a 1,1 0 1,0 2,0 a 1,1 0 1,0 -2,0 M -91.61 509.36 m -0.5, 0 a 0.5,0.5 0 1,0 1,0 a 0.5,0.5 0 1,0 -1,0  M-91.61 509.36 L-91.61 509.36 -103.61 509.36 M -91.61 515.36 m -1, 0 a 1,1 0 1,0 2,0 a 1,1 0 1,0 -2,0 M -91.61 515.36 m -0.5, 0 a 0.5,0.5 0 1,0 1,0 a 0.5,0.5 0 1,0 -1,0  M-91.61 515.36 L-91.61 515.36 -98.61 509.36 -91.61 503.36 M -91.61 503.36 m -1, 0 a 1,1 0 1,0 2,0 a 1,1 0 1,0 -2,0 M -91.61 503.36 m -0.5, 0 a 0.5,0.5 0 1,0 1,0 a 0.5,0.5 0 1,0 -1,0  M-103.61 509.36 Q -176.69 509.36, -249.77 352.81 T -395.93 196.25 M -407.93 196.25 m -1, 0 a 1,1 0 1,0 2,0 a 1,1 0 1,0 -2,0 M -407.93 196.25 m -0.5, 0 a 0.5,0.5 0 1,0 1,0 a 0.5,0.5 0 1,0 -1,0  M-407.93 196.25 L-407.93 196.25 -395.93 196.25 M-401.93 202.25 L-401.93 202.25 -401.93 190.25" id="h1870022231" class="r"></path><path d="M -91.61 534.36 m -1, 0 a 1,1 0 1,0 2,0 a 1,1 0 1,0 -2,0 M -91.61 534.36 m -0.5, 0 a 0.5,0.5 0 1,0 1,0 a 0.5,0.5 0 1,0 -1,0  M-91.61 534.36 L-91.61 534.36 -103.61 534.36 M -91.61 540.36 m -1, 0 a 1,1 0 1,0 2,0 a 1,1 0 1,0 -2,0 M -91.61 540.36 m -0.5, 0 a 0.5,0.5 0 1,0 1,0 a 0.5,0.5 0 1,0 -1,0  M-91.61 540.36 L-91.61 540.36 -98.61 534.36 -91.61 528.36 M -91.61 528.36 m -1, 0 a 1,1 0 1,0 2,0 a 1,1 0 1,0 -2,0 M -91.61 528.36 m -0.5, 0 a 0.5,0.5 0 1,0 1,0 a 0.5,0.5 0 1,0 -1,0  M-103.61 534.36 Q -136.55 534.36, -169.49 565.41 T -235.37 596.46 M -247.37 596.46 m -1, 0 a 1,1 0 1,0 2,0 a 1,1 0 1,0 -2,0 M -247.37 596.46 m -0.5, 0 a 0.5,0.5 0 1,0 1,0 a 0.5,0.5 0 1,0 -1,0  M-247.37 596.46 L-247.37 596.46 -235.37 596.46 M-241.37 602.46 L-241.37 602.46 -241.37 590.46" id="h678274418" class="r"></path></g><g class="hrs"></g><g class="ts"><svg width="204.75" height="250" x="-74.46" y="-63.39" id="h2271850269" class="t"><rect height="40" width="204.75" class="th"></rect><text x="13" y="25" class="tht">dim_session</text><rect height="210" width="204.75" class="t-bg"></rect><text x="13" y="61" class="tf pk">id<tspan x="191.75" class="ty">integer</tspan></text><path d="M7,14A2,2 0 0,1 5,12A2,2 0 0,1 7,10A2,2 0 0,1 9,12A2,2 0 0,1 7,14M12.65,10C11.83,7.67 9.61,6 7, 6A6, 6 0 0, 0 1, 12A6, 6 0 0, 0 7, 18C9.61, 18 11.83, 16.33 12.65, 14H17V18H21V14H23V10H12.65Z" class="i pk" transform="translate(135.05859375, 48) scale(0.65)"></path><text x="13" y="86" class="tf">session_id<tspan x="191.75" class="ty">string</tspan></text><text x="13" y="111" class="tf">session_start_ts<tspan x="191.75" class="ty">datetime</tspan></text><text x="13" y="136" class="tf">session_end_ts<tspan x="191.75" class="ty">datetime</tspan></text><text x="13" y="161" class="tf">session_duration_sec<tspan x="191.75" class="ty">numeric</tspan></text><text x="13" y="186" class="tf">user_id<tspan x="191.75" class="ty">string</tspan></text><text x="13" y="211" class="tf">ip<tspan x="191.75" class="ty">string</tspan></text><text x="13" y="236" class="tf">session_ts<tspan x="191.75" class="ty">datetime</tspan></text></svg><svg width="221.44" height="325" x="-91.61" y="277.36" id="h1824633244" class="t"><rect height="40" width="221.44" class="th"></rect><text x="13" y="25" class="tht">page_view_by_session</text><rect height="285" width="221.44" class="t-bg"></rect><text x="13" y="61" class="tf fk">session_id<tspan x="208.44" class="ty">interger</tspan></text><text x="13" y="86" class="tf fk">page_id<tspan x="208.44" class="ty">integer</tspan></text><text x="13" y="111" class="tf fk">referrer_page_id<tspan x="208.44" class="ty">integer</tspan></text><text x="13" y="136" class="tf">page_view_order<tspan x="208.44" class="ty">integer</tspan></text><text x="13" y="161" class="tf">page_view_start_ts<tspan x="208.44" class="ty">datetime</tspan></text><text x="13" y="186" class="tf">page_view_end_ts<tspan x="208.44" class="ty">datetime</tspan></text><text x="13" y="211" class="tf">page_view_duration_sec<tspan x="208.44" class="ty">numeric</tspan></text><text x="13" y="236" class="tf fk">content_id<tspan x="208.44" class="ty">integer</tspan></text><text x="13" y="261" class="tf fk">date_id<tspan x="208.44" class="ty">string</tspan></text><text x="13" y="286" class="tf">page_count<tspan x="208.44" class="ty">integer</tspan></text><text x="13" y="311" class="tf">content_count<tspan x="208.44" class="ty">integer</tspan></text></svg><svg width="112.03" height="100" x="330.17" y="228.03" id="h2826618795" class="t"><rect height="40" width="112.03" class="th"></rect><text x="13" y="25" class="tht">dim_page</text><rect height="60" width="112.03" class="t-bg"></rect><text x="13" y="61" class="tf pk">id<tspan x="99.03" class="ty">integer</tspan></text><path d="M7,14A2,2 0 0,1 5,12A2,2 0 0,1 7,10A2,2 0 0,1 9,12A2,2 0 0,1 7,14M12.65,10C11.83,7.67 9.61,6 7, 6A6, 6 0 0, 0 1, 12A6, 6 0 0, 0 7, 18C9.61, 18 11.83, 16.33 12.65, 14H17V18H21V14H23V10H12.65Z" class="i pk" transform="translate(42.33859375, 48) scale(0.65)"></path><text x="13" y="86" class="tf">url<tspan x="99.03" class="ty">string</tspan></text></svg><svg width="205.43" height="250" x="-613.36" y="139.25" id="h1617933054" class="t"><rect height="40" width="205.43" class="th"></rect><text x="13" y="25" class="tht">dim_content</text><rect height="210" width="205.43" class="t-bg"></rect><text x="13" y="61" class="tf pk">id<tspan x="192.43" class="ty">interger</tspan></text><path d="M7,14A2,2 0 0,1 5,12A2,2 0 0,1 7,10A2,2 0 0,1 9,12A2,2 0 0,1 7,14M12.65,10C11.83,7.67 9.61,6 7, 6A6, 6 0 0, 0 1, 12A6, 6 0 0, 0 7, 18C9.61, 18 11.83, 16.33 12.65, 14H17V18H21V14H23V10H12.65Z" class="i pk" transform="translate(131.7425, 48) scale(0.65)"></path><text x="13" y="86" class="tf">content_id<tspan x="192.43" class="ty">string</tspan></text><text x="13" y="111" class="tf">content_type<tspan x="192.43" class="ty">string</tspan></text><text x="13" y="136" class="tf">creation_date<tspan x="192.43" class="ty">datetime</tspan></text><text x="13" y="161" class="tf">version<tspan x="192.43" class="ty">integer</tspan></text><text x="13" y="186" class="tf">body<tspan x="192.43" class="ty">string[array]</tspan></text><text x="13" y="211" class="tf">author<tspan x="192.43" class="ty">string</tspan></text><text x="13" y="236" class="tf">related_media<tspan x="192.43" class="ty">contentId[array]</tspan></text></svg><svg width="108.7" height="175" x="-356.07" y="539.46" id="h487611896" class="t"><rect height="40" width="108.7" class="th"></rect><text x="13" y="25" class="tht">dim_date</text><rect height="135" width="108.7" class="t-bg"></rect><text x="13" y="61" class="tf pk">id<tspan x="95.7" class="ty">string</tspan></text><path d="M7,14A2,2 0 0,1 5,12A2,2 0 0,1 7,10A2,2 0 0,1 9,12A2,2 0 0,1 7,14M12.65,10C11.83,7.67 9.61,6 7, 6A6, 6 0 0, 0 1, 12A6, 6 0 0, 0 7, 18C9.61, 18 11.83, 16.33 12.65, 14H17V18H21V14H23V10H12.65Z" class="i pk" transform="translate(46.35625, 48) scale(0.65)"></path><text x="13" y="86" class="tf">date<tspan x="95.7" class="ty">date</tspan></text><text x="13" y="111" class="tf">year<tspan x="95.7" class="ty">string</tspan></text><text x="13" y="136" class="tf">month<tspan x="95.7" class="ty">string</tspan></text><text x="13" y="161" class="tf">day<tspan x="95.7" class="ty">string</tspan></text></svg></g></g><text class="qdbd-link" x="10" y="20">www.quickdatabasediagrams.com</text></svg>