<svg class="diagram-root" style="background: #f5f6f6" xmlns="http://www.w3.org/2000/svg" xmlns:xlink="http://www.w3.org/1999/xlink"><style>.diagram-root { font-family: "Helvetica Neue", sans-serif; font-size: 12px; } .t { overflow: visible; } .t-bg { y: 40; fill: #fff;   } .th { fill: #005aa0;   } .tht { fill: #fff; font-size: 14px;  } .tf { fill: #323c46; overflow: visible; } .tf.pk { fill: #005aa0; font-weight: bold; } .tf.fk { font-weight: bold; } .ty { fill: #adb1b5; font-weight: normal; text-anchor: end; } .r { fill: transparent; stroke: #c3c3c3; stroke-width: 1; } .l { stroke: 1; } .i { fill: #c2c7ce; stroke: #c2c7ce; } .i.ix { fill: #afb3b6; stroke: #000; } .fa { fill: transparent; overflow: visible; } .fa .bg.hover { fill: #f7f7f7; } .c { cy: 12; r: 4; stroke: #d2d2dc; fill: #d2d2dc; } .hr { fill: transparent; stroke: #323c46; stroke-opacity: 0.035; stroke-width: 13; } .dc { stroke: #fa5a3c; fill: #fa5a3c; } .x { stroke: white; stroke-width: 1; } .hl .th { fill: #1b9bff; } .hl .tht {  } .fhl .bg { fill: #e7f4ff; } .fhls .bg {  } .r.hl { stroke: #1b9bff; } .dim { opacity: 0.25; }</style><g class="drawing-wrapper" transform="translate(317.53571428571416, 93.39285714285703) scale(1,1)"><g class="rs"><path d="M -74.46 168.61 m -1, 0 a 1,1 0 1,0 2,0 a 1,1 0 1,0 -2,0 M -74.46 168.61 m -0.5, 0 a 0.5,0.5 0 1,0 1,0 a 0.5,0.5 0 1,0 -1,0  M-74.46 168.61 L-74.46 168.61 -86.46 168.61 M -74.46 174.61 m -1, 0 a 1,1 0 1,0 2,0 a 1,1 0 1,0 -2,0 M -74.46 174.61 m -0.5, 0 a 0.5,0.5 0 1,0 1,0 a 0.5,0.5 0 1,0 -1,0  M-74.46 174.61 L-74.46 174.61 -81.46 168.61 -74.46 162.61 M -74.46 162.61 m -1, 0 a 1,1 0 1,0 2,0 a 1,1 0 1,0 -2,0 M -74.46 162.61 m -0.5, 0 a 0.5,0.5 0 1,0 1,0 a 0.5,0.5 0 1,0 -1,0  M-86.46 168.61 Q -107.72 168.61, -128.98 207.72 T -171.51 246.82 M -183.51 246.82 m -1, 0 a 1,1 0 1,0 2,0 a 1,1 0 1,0 -2,0 M -183.51 246.82 m -0.5, 0 a 0.5,0.5 0 1,0 1,0 a 0.5,0.5 0 1,0 -1,0  M-183.51 246.82 L-183.51 246.82 -171.51 246.82 M-177.51 252.82 L-177.51 252.82 -177.51 240.82" id="h1539581934" class="r"></path><path d="M -74.46 193.61 m -1, 0 a 1,1 0 1,0 2,0 a 1,1 0 1,0 -2,0 M -74.46 193.61 m -0.5, 0 a 0.5,0.5 0 1,0 1,0 a 0.5,0.5 0 1,0 -1,0  M-74.46 193.61 L-74.46 193.61 -86.46 193.61 M -74.46 199.61 m -1, 0 a 1,1 0 1,0 2,0 a 1,1 0 1,0 -2,0 M -74.46 199.61 m -0.5, 0 a 0.5,0.5 0 1,0 1,0 a 0.5,0.5 0 1,0 -1,0  M-74.46 199.61 L-74.46 199.61 -81.46 193.61 -74.46 187.61 M -74.46 187.61 m -1, 0 a 1,1 0 1,0 2,0 a 1,1 0 1,0 -2,0 M -74.46 187.61 m -0.5, 0 a 0.5,0.5 0 1,0 1,0 a 0.5,0.5 0 1,0 -1,0  M-86.46 193.61 Q -107.72 193.61, -128.98 220.22 T -171.51 246.82 M -183.51 246.82 m -1, 0 a 1,1 0 1,0 2,0 a 1,1 0 1,0 -2,0 M -183.51 246.82 m -0.5, 0 a 0.5,0.5 0 1,0 1,0 a 0.5,0.5 0 1,0 -1,0  M-183.51 246.82 L-183.51 246.82 -171.51 246.82 M-177.51 252.82 L-177.51 252.82 -177.51 240.82" id="h2386657889" class="r"></path><path d="M 105.81 359.36 m -1, 0 a 1,1 0 1,0 2,0 a 1,1 0 1,0 -2,0 M 105.81 359.36 m -0.5, 0 a 0.5,0.5 0 1,0 1,0 a 0.5,0.5 0 1,0 -1,0  M105.81 359.36 L105.81 359.36 117.81 359.36 M 105.81 365.36 m -1, 0 a 1,1 0 1,0 2,0 a 1,1 0 1,0 -2,0 M 105.81 365.36 m -0.5, 0 a 0.5,0.5 0 1,0 1,0 a 0.5,0.5 0 1,0 -1,0  M105.81 365.36 L105.81 365.36 112.81 359.36 105.81 353.36 M 105.81 353.36 m -1, 0 a 1,1 0 1,0 2,0 a 1,1 0 1,0 -2,0 M 105.81 353.36 m -0.5, 0 a 0.5,0.5 0 1,0 1,0 a 0.5,0.5 0 1,0 -1,0  M117.81 359.36 C 167.81 359.36, 168.73399999999998 -6.390000000000001, 116.27 -6.390000000000001 M 104.27 -6.390000000000001 m -1, 0 a 1,1 0 1,0 2,0 a 1,1 0 1,0 -2,0 M 104.27 -6.390000000000001 m -0.5, 0 a 0.5,0.5 0 1,0 1,0 a 0.5,0.5 0 1,0 -1,0  M104.27 -6.390000000000001 L104.27 -6.390000000000001 116.27 -6.390000000000001 M110.27 -0.39000000000000057 L110.27 -0.39000000000000057 110.27 -12.39" id="h3009245016" class="r"></path><path d="M -91.61 384.36 m -1, 0 a 1,1 0 1,0 2,0 a 1,1 0 1,0 -2,0 M -91.61 384.36 m -0.5, 0 a 0.5,0.5 0 1,0 1,0 a 0.5,0.5 0 1,0 -1,0  M-91.61 384.36 L-91.61 384.36 -103.61 384.36 M -91.61 390.36 m -1, 0 a 1,1 0 1,0 2,0 a 1,1 0 1,0 -2,0 M -91.61 390.36 m -0.5, 0 a 0.5,0.5 0 1,0 1,0 a 0.5,0.5 0 1,0 -1,0  M-91.61 390.36 L-91.61 390.36 -98.61 384.36 -91.61 378.36 M -91.61 378.36 m -1, 0 a 1,1 0 1,0 2,0 a 1,1 0 1,0 -2,0 M -91.61 378.36 m -0.5, 0 a 0.5,0.5 0 1,0 1,0 a 0.5,0.5 0 1,0 -1,0  M-103.61 384.36 Q -120.58 384.36, -137.56 315.59 T -171.51 246.82 M -183.51 246.82 m -1, 0 a 1,1 0 1,0 2,0 a 1,1 0 1,0 -2,0 M -183.51 246.82 m -0.5, 0 a 0.5,0.5 0 1,0 1,0 a 0.5,0.5 0 1,0 -1,0  M-183.51 246.82 L-183.51 246.82 -171.51 246.82 M-177.51 252.82 L-177.51 252.82 -177.51 240.82" id="h1165223422" class="r"></path><path d="M 105.81 484.36 m -1, 0 a 1,1 0 1,0 2,0 a 1,1 0 1,0 -2,0 M 105.81 484.36 m -0.5, 0 a 0.5,0.5 0 1,0 1,0 a 0.5,0.5 0 1,0 -1,0  M105.81 484.36 L105.81 484.36 117.81 484.36 M 105.81 490.36 m -1, 0 a 1,1 0 1,0 2,0 a 1,1 0 1,0 -2,0 M 105.81 490.36 m -0.5, 0 a 0.5,0.5 0 1,0 1,0 a 0.5,0.5 0 1,0 -1,0  M105.81 490.36 L105.81 490.36 112.81 484.36 105.81 478.36 M 105.81 478.36 m -1, 0 a 1,1 0 1,0 2,0 a 1,1 0 1,0 -2,0 M 105.81 478.36 m -0.5, 0 a 0.5,0.5 0 1,0 1,0 a 0.5,0.5 0 1,0 -1,0  M117.81 484.36 Q 140.27 484.36, 162.73 323.81 T 207.64 163.25 M 219.64 163.25 m -1, 0 a 1,1 0 1,0 2,0 a 1,1 0 1,0 -2,0 M 219.64 163.25 m -0.5, 0 a 0.5,0.5 0 1,0 1,0 a 0.5,0.5 0 1,0 -1,0  M219.64 163.25 L219.64 163.25 207.64 163.25 M213.64 169.25 L213.64 169.25 213.64 157.25" id="h1870022231" class="r"></path><path d="M 105.81 509.36 m -1, 0 a 1,1 0 1,0 2,0 a 1,1 0 1,0 -2,0 M 105.81 509.36 m -0.5, 0 a 0.5,0.5 0 1,0 1,0 a 0.5,0.5 0 1,0 -1,0  M105.81 509.36 L105.81 509.36 117.81 509.36 M 105.81 515.36 m -1, 0 a 1,1 0 1,0 2,0 a 1,1 0 1,0 -2,0 M 105.81 515.36 m -0.5, 0 a 0.5,0.5 0 1,0 1,0 a 0.5,0.5 0 1,0 -1,0  M105.81 515.36 L105.81 515.36 112.81 509.36 105.81 503.36 M 105.81 503.36 m -1, 0 a 1,1 0 1,0 2,0 a 1,1 0 1,0 -2,0 M 105.81 503.36 m -0.5, 0 a 0.5,0.5 0 1,0 1,0 a 0.5,0.5 0 1,0 -1,0  M117.81 509.36 Q 144.47 509.36, 171.12 495.41 T 224.43 481.46 M 236.43 481.46 m -1, 0 a 1,1 0 1,0 2,0 a 1,1 0 1,0 -2,0 M 236.43 481.46 m -0.5, 0 a 0.5,0.5 0 1,0 1,0 a 0.5,0.5 0 1,0 -1,0  M236.43 481.46 L236.43 481.46 224.43 481.46 M230.43 487.46 L230.43 487.46 230.43 475.46" id="h678274418" class="r"></path></g><g class="hrs"></g><g class="ts"><svg width="178.73" height="275" x="-74.46" y="-63.39" id="h2271850269" class="t"><rect height="40" width="178.73" class="th"></rect><text x="13" y="25" class="tht">dim_session</text><rect height="235" width="178.73" class="t-bg"></rect><text x="13" y="61" class="tf pk">id<tspan x="165.73" class="ty">integer</tspan></text><path d="M7,14A2,2 0 0,1 5,12A2,2 0 0,1 7,10A2,2 0 0,1 9,12A2,2 0 0,1 7,14M12.65,10C11.83,7.67 9.61,6 7, 6A6, 6 0 0, 0 1, 12A6, 6 0 0, 0 7, 18C9.61, 18 11.83, 16.33 12.65, 14H17V18H21V14H23V10H12.65Z" class="i pk" transform="translate(109.03859374999999, 48) scale(0.65)"></path><text x="13" y="86" class="tf">session_id<tspan x="165.73" class="ty">varchar</tspan></text><text x="13" y="111" class="tf">session_start_ts<tspan x="165.73" class="ty">datetime</tspan></text><text x="13" y="136" class="tf">session_end_tS<tspan x="165.73" class="ty">datetime</tspan></text><text x="13" y="161" class="tf">user_id<tspan x="165.73" class="ty">varchar</tspan></text><text x="13" y="186" class="tf">ip<tspan x="165.73" class="ty">varchar</tspan></text><text x="13" y="211" class="tf">session_ts<tspan x="165.73" class="ty">datetime</tspan></text><text x="13" y="236" class="tf fk">page_id<tspan x="165.73" class="ty">integer</tspan></text><text x="13" y="261" class="tf fk">referrer_page_id<tspan x="165.73" class="ty">int</tspan></text></svg><svg width="112.03" height="100" x="-295.54" y="189.82" id="h2826618795" class="t"><rect height="40" width="112.03" class="th"></rect><text x="13" y="25" class="tht">dim_page</text><rect height="60" width="112.03" class="t-bg"></rect><text x="13" y="61" class="tf pk">id<tspan x="99.03" class="ty">integer</tspan></text><path d="M7,14A2,2 0 0,1 5,12A2,2 0 0,1 7,10A2,2 0 0,1 9,12A2,2 0 0,1 7,14M12.65,10C11.83,7.67 9.61,6 7, 6A6, 6 0 0, 0 1, 12A6, 6 0 0, 0 7, 18C9.61, 18 11.83, 16.33 12.65, 14H17V18H21V14H23V10H12.65Z" class="i pk" transform="translate(42.33859375, 48) scale(0.65)"></path><text x="13" y="86" class="tf">url<tspan x="99.03" class="ty">varchar</tspan></text></svg><svg width="205.43" height="250" x="219.64" y="106.25" id="h1617933054" class="t"><rect height="40" width="205.43" class="th"></rect><text x="13" y="25" class="tht">dim_content</text><rect height="210" width="205.43" class="t-bg"></rect><text x="13" y="61" class="tf pk">id<tspan x="192.43" class="ty">interger</tspan></text><path d="M7,14A2,2 0 0,1 5,12A2,2 0 0,1 7,10A2,2 0 0,1 9,12A2,2 0 0,1 7,14M12.65,10C11.83,7.67 9.61,6 7, 6A6, 6 0 0, 0 1, 12A6, 6 0 0, 0 7, 18C9.61, 18 11.83, 16.33 12.65, 14H17V18H21V14H23V10H12.65Z" class="i pk" transform="translate(131.7425, 48) scale(0.65)"></path><text x="13" y="86" class="tf">content_id<tspan x="192.43" class="ty">varchar</tspan></text><text x="13" y="111" class="tf">content_type<tspan x="192.43" class="ty">varchar</tspan></text><text x="13" y="136" class="tf">creation_date<tspan x="192.43" class="ty">datetime</tspan></text><text x="13" y="161" class="tf">version<tspan x="192.43" class="ty">integer</tspan></text><text x="13" y="186" class="tf">body<tspan x="192.43" class="ty">varchar[array]</tspan></text><text x="13" y="211" class="tf">author<tspan x="192.43" class="ty">varchar</tspan></text><text x="13" y="236" class="tf">related_media<tspan x="192.43" class="ty">contentId[array]</tspan></text></svg><svg width="119.37" height="175" x="236.43" y="424.46" id="h487611896" class="t"><rect height="40" width="119.37" class="th"></rect><text x="13" y="25" class="tht">dim_date</text><rect height="135" width="119.37" class="t-bg"></rect><text x="13" y="61" class="tf pk">id<tspan x="106.37" class="ty">varchar</tspan></text><path d="M7,14A2,2 0 0,1 5,12A2,2 0 0,1 7,10A2,2 0 0,1 9,12A2,2 0 0,1 7,14M12.65,10C11.83,7.67 9.61,6 7, 6A6, 6 0 0, 0 1, 12A6, 6 0 0, 0 7, 18C9.61, 18 11.83, 16.33 12.65, 14H17V18H21V14H23V10H12.65Z" class="i pk" transform="translate(46.356328125000005, 48) scale(0.65)"></path><text x="13" y="86" class="tf">date<tspan x="106.37" class="ty">date</tspan></text><text x="13" y="111" class="tf">year<tspan x="106.37" class="ty">varchar</tspan></text><text x="13" y="136" class="tf">month<tspan x="106.37" class="ty">varchar</tspan></text><text x="13" y="161" class="tf">day<tspan x="106.37" class="ty">varchar</tspan></text></svg><svg width="197.42" height="300" x="-91.61" y="277.36" id="h1824633244" class="t"><rect height="40" width="197.42" class="th"></rect><text x="13" y="25" class="tht">page_view_by_session</text><rect height="260" width="197.42" class="t-bg"></rect><text x="13" y="61" class="tf pk">id<tspan x="184.42" class="ty">integer</tspan></text><path d="M7,14A2,2 0 0,1 5,12A2,2 0 0,1 7,10A2,2 0 0,1 9,12A2,2 0 0,1 7,14M12.65,10C11.83,7.67 9.61,6 7, 6A6, 6 0 0, 0 1, 12A6, 6 0 0, 0 7, 18C9.61, 18 11.83, 16.33 12.65, 14H17V18H21V14H23V10H12.65Z" class="i pk" transform="translate(127.72859374999999, 48) scale(0.65)"></path><text x="13" y="86" class="tf fk">session_id<tspan x="184.42" class="ty">interger</tspan></text><text x="13" y="111" class="tf fk">page_id<tspan x="184.42" class="ty">integer</tspan></text><text x="13" y="136" class="tf">page_view_order<tspan x="184.42" class="ty">integer</tspan></text><text x="13" y="161" class="tf">page_view_start_tS<tspan x="184.42" class="ty">datetime</tspan></text><text x="13" y="186" class="tf">page_view_end_ts<tspan x="184.42" class="ty">datetime</tspan></text><text x="13" y="211" class="tf fk">content_id<tspan x="184.42" class="ty">integer</tspan></text><text x="13" y="236" class="tf fk">date_id<tspan x="184.42" class="ty">varchar</tspan></text><text x="13" y="261" class="tf">page_count<tspan x="184.42" class="ty">integer</tspan></text><text x="13" y="286" class="tf">content_count<tspan x="184.42" class="ty">integer</tspan></text></svg></g></g><text class="qdbd-link" x="10" y="20">www.quickdatabasediagrams.com</text></svg>